<ttFont>
    <TTGlyph name=".notdef" xMin="193" yMin="0" xMax="1034" yMax="1462">
      <contour>
        <pt x="193" y="1462" on="1"/>
        <pt x="1034" y="1462" on="1"/>
        <pt x="1034" y="0" on="1"/>
        <pt x="193" y="0" on="1"/>
      </contour>
      <contour>
        <pt x="297" y="104" on="1"/>
        <pt x="930" y="104" on="1"/>
        <pt x="930" y="1358" on="1"/>
        <pt x="297" y="1358" on="1"/>
      </contour>
    </TTGlyph>
    <TTGlyph name="glyph00004" xMin="205" yMin="199" xMax="1804" yMax="1507">
      <contour>
        <pt x="1300" y="1507" on="1"/>
        <pt x="1249" y="1368" on="0"/>
        <pt x="1166" y="872" on="0"/>
        <pt x="1141" y="578" on="1"/>
        <pt x="1437" y="530" on="0"/>
        <pt x="1804" y="506" on="1"/>
        <pt x="1804" y="459" on="1"/>
        <pt x="1379" y="407" on="0"/>
        <pt x="884" y="300" on="0"/>
        <pt x="739" y="236" on="1"/>
        <pt x="754" y="343" on="0"/>
        <pt x="754" y="433" on="1"/>
        <pt x="564" y="387" on="0"/>
        <pt x="305" y="275" on="0"/>
        <pt x="211" y="199" on="1"/>
        <pt x="226" y="339" on="0"/>
        <pt x="227" y="428" on="1"/>
        <pt x="227" y="558" on="0"/>
        <pt x="205" y="676" on="1"/>
        <pt x="333" y="581" on="0"/>
        <pt x="539" y="526" on="1"/>
        <pt x="450" y="1225" on="0"/>
        <pt x="328" y="1493" on="1"/>
        <pt x="445" y="1478" on="0"/>
        <pt x="539" y="1478" on="1"/>
        <pt x="650" y="1479" on="0"/>
        <pt x="768" y="1507" on="1"/>
        <pt x="720" y="1379" on="0"/>
        <pt x="631" y="873" on="0"/>
        <pt x="604" y="510" on="1"/>
        <pt x="672" y="494" on="0"/>
        <pt x="753" y="483" on="1"/>
        <pt x="749" y="581" on="0"/>
        <pt x="725" y="676" on="1"/>
        <pt x="840" y="632" on="0"/>
        <pt x="1062" y="592" on="1"/>
        <pt x="977" y="1229" on="0"/>
        <pt x="860" y="1493" on="1"/>
        <pt x="977" y="1478" on="0"/>
        <pt x="1072" y="1478" on="1"/>
        <pt x="1184" y="1479" on="0"/>
      </contour>
    </TTGlyph>
    <TTGlyph name="glyph00005" xMin="205" yMin="-229" xMax="647" yMax="1507">
      <contour>
        <pt x="647" y="1507" on="1"/>
        <pt x="591" y="1299" on="0"/>
        <pt x="529" y="857" on="0"/>
        <pt x="490" y="228" on="0"/>
        <pt x="477" y="-229" on="1"/>
        <pt x="424" y="-229" on="1"/>
        <pt x="382" y="397" on="0"/>
        <pt x="330" y="922" on="0"/>
        <pt x="261" y="1306" on="0"/>
        <pt x="205" y="1507" on="1"/>
        <pt x="307" y="1482" on="0"/>
        <pt x="416" y="1481" on="1"/>
        <pt x="530" y="1481" on="0"/>
      </contour>
    </TTGlyph>
    <TTGlyph name="glyph00006" xMin="205" yMin="-229" xMax="647" yMax="1507">
      <contour>
        <pt x="647" y="954" on="1"/>
        <pt x="602" y="844" on="1"/>
        <pt x="511" y="627" on="0"/>
        <pt x="463" y="382" on="1"/>
        <pt x="559" y="384" on="0"/>
        <pt x="647" y="401" on="1"/>
        <pt x="599" y="284" on="1"/>
        <pt x="500" y="46" on="0"/>
        <pt x="453" y="-229" on="1"/>
        <pt x="399" y="-229" on="1"/>
        <pt x="370" y="-57" on="0"/>
        <pt x="282" y="238" on="0"/>
        <pt x="205" y="401" on="1"/>
        <pt x="295" y="387" on="0"/>
        <pt x="388" y="383" on="1"/>
        <pt x="358" y="538" on="0"/>
        <pt x="282" y="787" on="0"/>
        <pt x="205" y="954" on="1"/>
        <pt x="295" y="940" on="0"/>
        <pt x="388" y="936" on="1"/>
        <pt x="358" y="1091" on="0"/>
        <pt x="282" y="1340" on="0"/>
        <pt x="205" y="1507" on="1"/>
        <pt x="343" y="1487" on="0"/>
        <pt x="454" y="1487" on="1"/>
        <pt x="549" y="1487" on="0"/>
        <pt x="647" y="1507" on="1"/>
        <pt x="602" y="1397" on="1"/>
        <pt x="511" y="1180" on="0"/>
        <pt x="463" y="935" on="1"/>
        <pt x="559" y="937" on="0"/>
      </contour>
    </TTGlyph>
    <TTGlyph name="glyph00007" xMin="205" yMin="233" xMax="2390" yMax="676">
      <contour>
        <pt x="758" y="676" on="1"/>
        <pt x="867" y="630" on="1"/>
        <pt x="1081" y="540" on="0"/>
        <pt x="1330" y="492" on="1"/>
        <pt x="1328" y="584" on="0"/>
        <pt x="1311" y="676" on="1"/>
        <pt x="1593" y="593" on="0"/>
        <pt x="2041" y="510" on="0"/>
        <pt x="2390" y="481" on="1"/>
        <pt x="2390" y="428" on="1"/>
        <pt x="2178" y="416" on="1"/>
        <pt x="1743" y="394" on="0"/>
        <pt x="1311" y="233" on="1"/>
        <pt x="1326" y="345" on="0"/>
        <pt x="1329" y="417" on="1"/>
        <pt x="1158" y="384" on="0"/>
        <pt x="891" y="298" on="0"/>
        <pt x="758" y="233" on="1"/>
        <pt x="773" y="345" on="0"/>
        <pt x="776" y="417" on="1"/>
        <pt x="605" y="384" on="0"/>
        <pt x="338" y="298" on="0"/>
        <pt x="205" y="233" on="1"/>
        <pt x="225" y="373" on="0"/>
        <pt x="225" y="483" on="1"/>
        <pt x="225" y="577" on="0"/>
        <pt x="205" y="676" on="1"/>
        <pt x="314" y="630" on="1"/>
        <pt x="528" y="540" on="0"/>
        <pt x="777" y="492" on="1"/>
        <pt x="775" y="584" on="0"/>
      </contour>
    </TTGlyph>
    <TTGlyph name="glyph00008" xMin="205" yMin="-438" xMax="2103" yMax="1522">
      <contour>
        <pt x="205" y="864" on="1"/>
        <pt x="264" y="845" on="0"/>
        <pt x="771" y="771" on="0"/>
        <pt x="984" y="746" on="1"/>
        <pt x="962" y="949" on="0"/>
        <pt x="907" y="1243" on="0"/>
        <pt x="836" y="1505" on="1"/>
        <pt x="942" y="1483" on="0"/>
        <pt x="1052" y="1483" on="1"/>
        <pt x="1162" y="1483" on="0"/>
        <pt x="1278" y="1505" on="1"/>
        <pt x="1225" y="1317" on="0"/>
        <pt x="1167" y="969" on="0"/>
        <pt x="1148" y="725" on="1"/>
        <pt x="1271" y="711" on="1"/>
        <pt x="1335" y="775" on="0"/>
        <pt x="1493" y="932" on="0"/>
        <pt x="1687" y="1129" on="0"/>
        <pt x="1920" y="1372" on="0"/>
        <pt x="2060" y="1522" on="1"/>
        <pt x="2103" y="1491" on="1"/>
        <pt x="1818" y="1038" on="0"/>
        <pt x="1618" y="664" on="1"/>
        <pt x="1699" y="507" on="1"/>
        <pt x="1919" y="77" on="0"/>
        <pt x="2103" y="-215" on="1"/>
        <pt x="2060" y="-246" on="1"/>
        <pt x="1898" y="-72" on="0"/>
        <pt x="1588" y="277" on="1"/>
        <pt x="1366" y="527" on="0"/>
        <pt x="1266" y="625" on="1"/>
        <pt x="1139" y="605" on="1"/>
        <pt x="1121" y="254" on="1"/>
        <pt x="1212" y="341" on="0"/>
        <pt x="1294" y="430" on="1"/>
        <pt x="1335" y="406" on="1"/>
        <pt x="1225" y="159" on="0"/>
        <pt x="1116" y="-18" on="1"/>
        <pt x="1227" y="-166" on="0"/>
        <pt x="1362" y="-408" on="1"/>
        <pt x="1323" y="-438" on="1"/>
        <pt x="1208" y="-329" on="0"/>
        <pt x="917" y="-100" on="0"/>
        <pt x="799" y="-25" on="1"/>
        <pt x="898" y="49" on="0"/>
        <pt x="1034" y="172" on="1"/>
        <pt x="1023" y="344" on="0"/>
        <pt x="1001" y="582" on="1"/>
        <pt x="764" y="541" on="0"/>
        <pt x="282" y="443" on="0"/>
        <pt x="213" y="422" on="1"/>
        <pt x="222" y="539" on="0"/>
        <pt x="222" y="633" on="1"/>
        <pt x="222" y="747" on="0"/>
      </contour>
    </TTGlyph>
    <TTGlyph name="glyph00009" xMin="205" yMin="-229" xMax="1495" yMax="1507">
      <contour>
        <pt x="1092" y="1507" on="1"/>
        <pt x="1016" y="1238" on="0"/>
        <pt x="942" y="493" on="0"/>
        <pt x="922" y="-229" on="1"/>
        <pt x="868" y="-229" on="1"/>
        <pt x="835" y="290" on="0"/>
        <pt x="782" y="861" on="0"/>
        <pt x="716" y="1263" on="0"/>
        <pt x="649" y="1507" on="1"/>
        <pt x="758" y="1480" on="0"/>
        <pt x="868" y="1480" on="1"/>
        <pt x="971" y="1480" on="0"/>
      </contour>
      <contour>
        <pt x="1126" y="641" on="1"/>
        <pt x="1184" y="690" on="1"/>
        <pt x="1360" y="834" on="0"/>
        <pt x="1460" y="922" on="1"/>
        <pt x="1495" y="899" on="1"/>
        <pt x="1449" y="827" on="0"/>
        <pt x="1384" y="703" on="0"/>
        <pt x="1350" y="641" on="1"/>
        <pt x="1384" y="581" on="0"/>
        <pt x="1449" y="455" on="0"/>
        <pt x="1495" y="383" on="1"/>
        <pt x="1460" y="354" on="1"/>
        <pt x="1347" y="457" on="1"/>
        <pt x="1207" y="584" on="0"/>
      </contour>
      <contour>
        <pt x="1126" y="57" on="1"/>
        <pt x="1184" y="106" on="1"/>
        <pt x="1360" y="250" on="0"/>
        <pt x="1460" y="338" on="1"/>
        <pt x="1495" y="315" on="1"/>
        <pt x="1449" y="243" on="0"/>
        <pt x="1384" y="119" on="0"/>
        <pt x="1350" y="57" on="1"/>
        <pt x="1384" y="-3" on="0"/>
        <pt x="1449" y="-128" on="0"/>
        <pt x="1495" y="-201" on="1"/>
        <pt x="1460" y="-229" on="1"/>
        <pt x="1347" y="-127" on="1"/>
        <pt x="1207" y="0" on="0"/>
      </contour>
      <contour>
        <pt x="1126" y="1227" on="1"/>
        <pt x="1252" y="1331" on="1"/>
        <pt x="1334" y="1397" on="0"/>
        <pt x="1460" y="1507" on="1"/>
        <pt x="1495" y="1485" on="1"/>
        <pt x="1449" y="1413" on="0"/>
        <pt x="1384" y="1289" on="0"/>
        <pt x="1350" y="1227" on="1"/>
        <pt x="1384" y="1167" on="0"/>
        <pt x="1449" y="1041" on="0"/>
        <pt x="1495" y="969" on="1"/>
        <pt x="1460" y="940" on="1"/>
        <pt x="1347" y="1043" on="1"/>
        <pt x="1207" y="1170" on="0"/>
      </contour>
      <contour>
        <pt x="205" y="641" on="1"/>
        <pt x="263" y="690" on="1"/>
        <pt x="439" y="834" on="0"/>
        <pt x="539" y="922" on="1"/>
        <pt x="573" y="899" on="1"/>
        <pt x="527" y="827" on="0"/>
        <pt x="462" y="703" on="0"/>
        <pt x="428" y="641" on="1"/>
        <pt x="462" y="581" on="0"/>
        <pt x="527" y="455" on="0"/>
        <pt x="573" y="383" on="1"/>
        <pt x="539" y="354" on="1"/>
        <pt x="425" y="457" on="1"/>
        <pt x="289" y="580" on="0"/>
      </contour>
      <contour>
        <pt x="205" y="57" on="1"/>
        <pt x="263" y="106" on="1"/>
        <pt x="439" y="250" on="0"/>
        <pt x="539" y="338" on="1"/>
        <pt x="573" y="315" on="1"/>
        <pt x="527" y="243" on="0"/>
        <pt x="462" y="119" on="0"/>
        <pt x="428" y="57" on="1"/>
        <pt x="462" y="-3" on="0"/>
        <pt x="527" y="-128" on="0"/>
        <pt x="573" y="-201" on="1"/>
        <pt x="539" y="-229" on="1"/>
        <pt x="425" y="-127" on="1"/>
        <pt x="323" y="-35" on="0"/>
        <pt x="253" y="23" on="0"/>
      </contour>
      <contour>
        <pt x="205" y="1227" on="1"/>
        <pt x="331" y="1331" on="1"/>
        <pt x="413" y="1397" on="0"/>
        <pt x="539" y="1507" on="1"/>
        <pt x="573" y="1485" on="1"/>
        <pt x="527" y="1413" on="0"/>
        <pt x="462" y="1289" on="0"/>
        <pt x="428" y="1227" on="1"/>
        <pt x="462" y="1167" on="0"/>
        <pt x="527" y="1041" on="0"/>
        <pt x="573" y="969" on="1"/>
        <pt x="539" y="940" on="1"/>
        <pt x="425" y="1043" on="1"/>
        <pt x="289" y="1166" on="0"/>
      </contour>
    </TTGlyph>
    <TTGlyph name="glyph00010" xMin="205" yMin="324" xMax="647" yMax="954">
      <contour>
        <pt x="647" y="954" on="1"/>
        <pt x="599" y="837" on="1"/>
        <pt x="500" y="599" on="0"/>
        <pt x="453" y="324" on="1"/>
        <pt x="399" y="324" on="1"/>
        <pt x="370" y="496" on="0"/>
        <pt x="282" y="791" on="0"/>
        <pt x="205" y="954" on="1"/>
        <pt x="343" y="934" on="0"/>
        <pt x="454" y="934" on="1"/>
        <pt x="549" y="934" on="0"/>
      </contour>
    </TTGlyph>
    <TTGlyph name="glyph00011" xMin="205" yMin="233" xMax="2390" yMax="1507">
      <contour>
        <pt x="1300" y="1507" on="1"/>
        <pt x="1254" y="1381" on="0"/>
        <pt x="1168" y="866" on="0"/>
        <pt x="1141" y="535" on="1"/>
        <pt x="1241" y="509" on="0"/>
        <pt x="1330" y="492" on="1"/>
        <pt x="1328" y="584" on="0"/>
        <pt x="1311" y="676" on="1"/>
        <pt x="1435" y="639" on="0"/>
        <pt x="1589" y="600" on="1"/>
        <pt x="1500" y="1256" on="0"/>
        <pt x="1393" y="1493" on="1"/>
        <pt x="1510" y="1478" on="0"/>
        <pt x="1604" y="1478" on="1"/>
        <pt x="1715" y="1479" on="0"/>
        <pt x="1833" y="1507" on="1"/>
        <pt x="1789" y="1389" on="0"/>
        <pt x="1704" y="897" on="0"/>
        <pt x="1677" y="580" on="1"/>
        <pt x="1965" y="514" on="0"/>
        <pt x="2390" y="481" on="1"/>
        <pt x="2390" y="428" on="1"/>
        <pt x="2178" y="416" on="1"/>
        <pt x="1743" y="394" on="0"/>
        <pt x="1311" y="233" on="1"/>
        <pt x="1326" y="345" on="0"/>
        <pt x="1329" y="417" on="1"/>
        <pt x="1158" y="384" on="0"/>
        <pt x="891" y="298" on="0"/>
        <pt x="758" y="233" on="1"/>
        <pt x="773" y="345" on="0"/>
        <pt x="776" y="417" on="1"/>
        <pt x="605" y="384" on="0"/>
        <pt x="338" y="298" on="0"/>
        <pt x="205" y="233" on="1"/>
        <pt x="224" y="378" on="0"/>
        <pt x="224" y="491" on="1"/>
        <pt x="224" y="616" on="0"/>
        <pt x="205" y="709" on="1"/>
        <pt x="275" y="678" on="1"/>
        <pt x="448" y="593" on="0"/>
        <pt x="528" y="563" on="1"/>
        <pt x="437" y="1251" on="0"/>
        <pt x="328" y="1493" on="1"/>
        <pt x="445" y="1478" on="0"/>
        <pt x="539" y="1478" on="1"/>
        <pt x="650" y="1479" on="0"/>
        <pt x="768" y="1507" on="1"/>
        <pt x="725" y="1394" on="0"/>
        <pt x="637" y="878" on="0"/>
        <pt x="609" y="536" on="1"/>
        <pt x="704" y="506" on="0"/>
        <pt x="777" y="492" on="1"/>
        <pt x="775" y="584" on="0"/>
        <pt x="758" y="676" on="1"/>
        <pt x="822" y="649" on="0"/>
        <pt x="968" y="588" on="0"/>
        <pt x="1061" y="559" on="1"/>
        <pt x="970" y="1247" on="0"/>
        <pt x="860" y="1493" on="1"/>
        <pt x="977" y="1478" on="0"/>
        <pt x="1072" y="1478" on="1"/>
        <pt x="1184" y="1479" on="0"/>
      </contour>
    </TTGlyph>
    <TTGlyph name="glyph00012" xMin="205" yMin="-229" xMax="1716" yMax="1507">
      <contour>
        <pt x="1182" y="1507" on="1"/>
        <pt x="1106" y="1238" on="0"/>
        <pt x="1032" y="493" on="0"/>
        <pt x="1012" y="-229" on="1"/>
        <pt x="958" y="-229" on="1"/>
        <pt x="925" y="290" on="0"/>
        <pt x="872" y="861" on="0"/>
        <pt x="806" y="1263" on="0"/>
        <pt x="739" y="1507" on="1"/>
        <pt x="841" y="1482" on="0"/>
        <pt x="951" y="1481" on="1"/>
        <pt x="1065" y="1481" on="0"/>
      </contour>
      <contour>
        <pt x="1716" y="1507" on="1"/>
        <pt x="1640" y="1238" on="0"/>
        <pt x="1565" y="460" on="0"/>
        <pt x="1546" y="-229" on="1"/>
        <pt x="1493" y="-229" on="1"/>
        <pt x="1451" y="397" on="0"/>
        <pt x="1399" y="922" on="0"/>
        <pt x="1330" y="1306" on="0"/>
        <pt x="1274" y="1507" on="1"/>
        <pt x="1376" y="1482" on="0"/>
        <pt x="1485" y="1481" on="1"/>
        <pt x="1599" y="1481" on="0"/>
      </contour>
      <contour>
        <pt x="647" y="1507" on="1"/>
        <pt x="591" y="1299" on="0"/>
        <pt x="529" y="857" on="0"/>
        <pt x="490" y="228" on="0"/>
        <pt x="477" y="-229" on="1"/>
        <pt x="424" y="-229" on="1"/>
        <pt x="382" y="397" on="0"/>
        <pt x="330" y="922" on="0"/>
        <pt x="261" y="1306" on="0"/>
        <pt x="205" y="1507" on="1"/>
        <pt x="307" y="1482" on="0"/>
        <pt x="416" y="1481" on="1"/>
        <pt x="530" y="1481" on="0"/>
      </contour>
    </TTGlyph>
    <TTGlyph name="glyph00013" xMin="205" yMin="-117" xMax="1942" yMax="1395">
      <contour>
        <pt x="205" y="952" on="1"/>
        <pt x="232" y="1072" on="0"/>
        <pt x="232" y="1176" on="1"/>
        <pt x="232" y="1286" on="0"/>
        <pt x="205" y="1395" on="1"/>
        <pt x="451" y="1327" on="0"/>
        <pt x="837" y="1264" on="0"/>
        <pt x="1410" y="1211" on="0"/>
        <pt x="1942" y="1176" on="1"/>
        <pt x="1942" y="1122" on="1"/>
        <pt x="1224" y="1102" on="0"/>
        <pt x="477" y="1028" on="0"/>
      </contour>
      <contour>
        <pt x="205" y="418" on="1"/>
        <pt x="232" y="538" on="0"/>
        <pt x="232" y="642" on="1"/>
        <pt x="232" y="752" on="0"/>
        <pt x="205" y="860" on="1"/>
        <pt x="455" y="791" on="0"/>
        <pt x="890" y="723" on="0"/>
        <pt x="1491" y="670" on="0"/>
        <pt x="1942" y="641" on="1"/>
        <pt x="1942" y="588" on="1"/>
        <pt x="1498" y="576" on="0"/>
        <pt x="861" y="536" on="0"/>
        <pt x="415" y="475" on="0"/>
      </contour>
      <contour>
        <pt x="205" y="-117" on="1"/>
        <pt x="232" y="3" on="0"/>
        <pt x="232" y="107" on="1"/>
        <pt x="232" y="217" on="0"/>
        <pt x="205" y="326" on="1"/>
        <pt x="457" y="256" on="0"/>
        <pt x="858" y="192" on="0"/>
        <pt x="1409" y="141" on="0"/>
        <pt x="1942" y="106" on="1"/>
        <pt x="1942" y="53" on="1"/>
        <pt x="1498" y="41" on="0"/>
        <pt x="861" y="1" on="0"/>
        <pt x="415" y="-60" on="0"/>
      </contour>
    </TTGlyph>
    <TTGlyph name="glyph00014" xMin="225" yMin="-229" xMax="666" yMax="1507">
      <contour>
        <pt x="666" y="1507" on="1"/>
        <pt x="625" y="1408" on="0"/>
        <pt x="537" y="1070" on="0"/>
        <pt x="502" y="883" on="1"/>
        <pt x="579" y="889" on="0"/>
        <pt x="666" y="903" on="1"/>
        <pt x="552" y="633" on="0"/>
        <pt x="471" y="-229" on="1"/>
        <pt x="424" y="-229" on="1"/>
        <pt x="389" y="154" on="0"/>
        <pt x="278" y="769" on="0"/>
        <pt x="225" y="903" on="1"/>
        <pt x="308" y="884" on="0"/>
        <pt x="386" y="881" on="1"/>
        <pt x="350" y="1086" on="0"/>
        <pt x="262" y="1430" on="0"/>
        <pt x="225" y="1507" on="1"/>
        <pt x="365" y="1487" on="0"/>
        <pt x="473" y="1487" on="1"/>
        <pt x="567" y="1487" on="0"/>
      </contour>
    </TTGlyph>
    <TTGlyph name="glyph00015" xMin="205" yMin="-246" xMax="2103" yMax="1522">
      <contour>
        <pt x="205" y="864" on="1"/>
        <pt x="304" y="833" on="0"/>
        <pt x="977" y="747" on="1"/>
        <pt x="951" y="975" on="0"/>
        <pt x="892" y="1295" on="0"/>
        <pt x="836" y="1505" on="1"/>
        <pt x="942" y="1483" on="0"/>
        <pt x="1052" y="1483" on="1"/>
        <pt x="1162" y="1483" on="0"/>
        <pt x="1278" y="1505" on="1"/>
        <pt x="1231" y="1336" on="0"/>
        <pt x="1174" y="968" on="0"/>
        <pt x="1154" y="725" on="1"/>
        <pt x="1271" y="711" on="1"/>
        <pt x="1335" y="775" on="0"/>
        <pt x="1493" y="932" on="0"/>
        <pt x="1687" y="1129" on="0"/>
        <pt x="1920" y="1372" on="0"/>
        <pt x="2060" y="1522" on="1"/>
        <pt x="2103" y="1491" on="1"/>
        <pt x="1818" y="1038" on="0"/>
        <pt x="1618" y="664" on="1"/>
        <pt x="1699" y="507" on="1"/>
        <pt x="1919" y="77" on="0"/>
        <pt x="2103" y="-215" on="1"/>
        <pt x="2060" y="-246" on="1"/>
        <pt x="1898" y="-72" on="0"/>
        <pt x="1588" y="277" on="1"/>
        <pt x="1366" y="527" on="0"/>
        <pt x="1266" y="625" on="1"/>
        <pt x="1145" y="606" on="1"/>
        <pt x="1121" y="237" on="0"/>
        <pt x="1108" y="-229" on="1"/>
        <pt x="1055" y="-229" on="1"/>
        <pt x="1022" y="272" on="0"/>
        <pt x="994" y="581" on="1"/>
        <pt x="851" y="557" on="0"/>
        <pt x="336" y="455" on="0"/>
        <pt x="213" y="422" on="1"/>
        <pt x="222" y="539" on="0"/>
        <pt x="222" y="633" on="1"/>
        <pt x="222" y="747" on="0"/>
      </contour>
    </TTGlyph>
    <TTGlyph name="glyph00016" xMin="205" yMin="-229" xMax="1182" yMax="1507">
      <contour>
        <pt x="647" y="954" on="1"/>
        <pt x="602" y="844" on="1"/>
        <pt x="511" y="627" on="0"/>
        <pt x="463" y="382" on="1"/>
        <pt x="559" y="384" on="0"/>
        <pt x="647" y="401" on="1"/>
        <pt x="599" y="284" on="1"/>
        <pt x="500" y="46" on="0"/>
        <pt x="453" y="-229" on="1"/>
        <pt x="399" y="-229" on="1"/>
        <pt x="370" y="-57" on="0"/>
        <pt x="282" y="238" on="0"/>
        <pt x="205" y="401" on="1"/>
        <pt x="295" y="387" on="0"/>
        <pt x="388" y="383" on="1"/>
        <pt x="358" y="538" on="0"/>
        <pt x="282" y="787" on="0"/>
        <pt x="205" y="954" on="1"/>
        <pt x="295" y="940" on="0"/>
        <pt x="388" y="936" on="1"/>
        <pt x="358" y="1091" on="0"/>
        <pt x="282" y="1340" on="0"/>
        <pt x="205" y="1507" on="1"/>
        <pt x="343" y="1487" on="0"/>
        <pt x="454" y="1487" on="1"/>
        <pt x="549" y="1487" on="0"/>
        <pt x="647" y="1507" on="1"/>
        <pt x="602" y="1397" on="1"/>
        <pt x="511" y="1180" on="0"/>
        <pt x="463" y="935" on="1"/>
        <pt x="559" y="937" on="0"/>
      </contour>
      <contour>
        <pt x="1182" y="954" on="1"/>
        <pt x="1136" y="844" on="1"/>
        <pt x="1045" y="627" on="0"/>
        <pt x="997" y="382" on="1"/>
        <pt x="1090" y="384" on="0"/>
        <pt x="1182" y="401" on="1"/>
        <pt x="1133" y="284" on="1"/>
        <pt x="1035" y="52" on="0"/>
        <pt x="987" y="-229" on="1"/>
        <pt x="934" y="-229" on="1"/>
        <pt x="905" y="-62" on="0"/>
        <pt x="821" y="228" on="0"/>
        <pt x="739" y="401" on="1"/>
        <pt x="829" y="387" on="0"/>
        <pt x="923" y="383" on="1"/>
        <pt x="890" y="555" on="0"/>
        <pt x="806" y="815" on="0"/>
        <pt x="739" y="954" on="1"/>
        <pt x="829" y="940" on="0"/>
        <pt x="923" y="936" on="1"/>
        <pt x="890" y="1108" on="0"/>
        <pt x="806" y="1368" on="0"/>
        <pt x="739" y="1507" on="1"/>
        <pt x="879" y="1487" on="0"/>
        <pt x="989" y="1487" on="1"/>
        <pt x="1083" y="1487" on="0"/>
        <pt x="1182" y="1507" on="1"/>
        <pt x="1136" y="1397" on="1"/>
        <pt x="1045" y="1180" on="0"/>
        <pt x="997" y="935" on="1"/>
        <pt x="1090" y="937" on="0"/>
      </contour>
    </TTGlyph>
    <TTGlyph name="glyph00017" xMin="205" yMin="-246" xMax="2093" yMax="1522">
      <contour>
        <pt x="205" y="664" on="1"/>
        <pt x="350" y="810" on="1"/>
        <pt x="724" y="1181" on="0"/>
        <pt x="1040" y="1522" on="1"/>
        <pt x="1083" y="1491" on="1"/>
        <pt x="798" y="1038" on="0"/>
        <pt x="598" y="664" on="1"/>
        <pt x="679" y="507" on="1"/>
        <pt x="899" y="77" on="0"/>
        <pt x="1083" y="-215" on="1"/>
        <pt x="1040" y="-246" on="1"/>
        <pt x="897" y="-92" on="0"/>
        <pt x="538" y="312" on="1"/>
        <pt x="313" y="564" on="0"/>
      </contour>
      <contour>
        <pt x="1573" y="1507" on="1"/>
        <pt x="1497" y="1238" on="0"/>
        <pt x="1422" y="460" on="0"/>
        <pt x="1403" y="-229" on="1"/>
        <pt x="1350" y="-229" on="1"/>
        <pt x="1308" y="385" on="0"/>
        <pt x="1258" y="904" on="0"/>
        <pt x="1192" y="1285" on="0"/>
        <pt x="1130" y="1507" on="1"/>
        <pt x="1232" y="1482" on="0"/>
        <pt x="1342" y="1481" on="1"/>
        <pt x="1456" y="1481" on="0"/>
      </contour>
      <contour>
        <pt x="1671" y="1389" on="1"/>
        <pt x="1791" y="1319" on="0"/>
        <pt x="1978" y="1268" on="0"/>
        <pt x="2093" y="1266" on="1"/>
        <pt x="1850" y="930" on="0"/>
        <pt x="1571" y="283" on="1"/>
        <pt x="1526" y="297" on="1"/>
        <pt x="1673" y="952" on="0"/>
        <pt x="1673" y="1323" on="1"/>
      </contour>
    </TTGlyph>
    <TTGlyph name="glyph00018" xMin="205" yMin="418" xMax="1942" yMax="860">
      <contour>
        <pt x="205" y="418" on="1"/>
        <pt x="232" y="538" on="0"/>
        <pt x="232" y="642" on="1"/>
        <pt x="232" y="752" on="0"/>
        <pt x="205" y="860" on="1"/>
        <pt x="455" y="791" on="0"/>
        <pt x="890" y="723" on="0"/>
        <pt x="1491" y="670" on="0"/>
        <pt x="1942" y="641" on="1"/>
        <pt x="1942" y="588" on="1"/>
        <pt x="1498" y="576" on="0"/>
        <pt x="861" y="536" on="0"/>
        <pt x="415" y="475" on="0"/>
      </contour>
    </TTGlyph>
    <TTGlyph name="glyph00019" xMin="205" yMin="207" xMax="1942" yMax="1169">
      <contour>
        <pt x="205" y="727" on="1"/>
        <pt x="232" y="847" on="0"/>
        <pt x="232" y="951" on="1"/>
        <pt x="232" y="1061" on="0"/>
        <pt x="205" y="1169" on="1"/>
        <pt x="455" y="1100" on="0"/>
        <pt x="890" y="1032" on="0"/>
        <pt x="1491" y="979" on="0"/>
        <pt x="1942" y="950" on="1"/>
        <pt x="1942" y="897" on="1"/>
        <pt x="1498" y="885" on="0"/>
        <pt x="861" y="845" on="0"/>
        <pt x="415" y="784" on="0"/>
      </contour>
      <contour>
        <pt x="205" y="207" on="1"/>
        <pt x="232" y="327" on="0"/>
        <pt x="232" y="431" on="1"/>
        <pt x="232" y="541" on="0"/>
        <pt x="205" y="649" on="1"/>
        <pt x="455" y="580" on="0"/>
        <pt x="890" y="512" on="0"/>
        <pt x="1491" y="459" on="0"/>
        <pt x="1942" y="430" on="1"/>
        <pt x="1942" y="377" on="1"/>
        <pt x="1498" y="365" on="0"/>
        <pt x="861" y="325" on="0"/>
        <pt x="415" y="264" on="0"/>
      </contour>
    </TTGlyph>
    <TTGlyph name="glyph00020" xMin="582" yMin="-221" xMax="1559" yMax="1516">
      <contour>
        <pt x="1116" y="1516" on="1"/>
        <pt x="1236" y="1489" on="0"/>
        <pt x="1340" y="1489" on="1"/>
        <pt x="1450" y="1489" on="0"/>
        <pt x="1559" y="1516" on="1"/>
        <pt x="1496" y="1290" on="0"/>
        <pt x="1431" y="911" on="0"/>
        <pt x="1378" y="372" on="0"/>
        <pt x="1337" y="-221" on="1"/>
        <pt x="1284" y="-221" on="1"/>
        <pt x="1270" y="291" on="0"/>
        <pt x="1228" y="914" on="0"/>
        <pt x="1170" y="1318" on="0"/>
      </contour>
      <contour>
        <pt x="582" y="1516" on="1"/>
        <pt x="702" y="1489" on="0"/>
        <pt x="806" y="1489" on="1"/>
        <pt x="916" y="1489" on="0"/>
        <pt x="1024" y="1516" on="1"/>
        <pt x="958" y="1279" on="0"/>
        <pt x="891" y="870" on="0"/>
        <pt x="838" y="293" on="0"/>
        <pt x="805" y="-221" on="1"/>
        <pt x="752" y="-221" on="1"/>
        <pt x="740" y="221" on="0"/>
        <pt x="700" y="857" on="0"/>
        <pt x="640" y="1302" on="0"/>
      </contour>
    </TTGlyph>
    <TTGlyph name="glyph00021" xMin="205" yMin="-246" xMax="2103" yMax="1522">
      <contour>
        <pt x="205" y="864" on="1"/>
        <pt x="270" y="843" on="0"/>
        <pt x="950" y="747" on="0"/>
        <pt x="1271" y="711" on="1"/>
        <pt x="1335" y="775" on="0"/>
        <pt x="1493" y="932" on="0"/>
        <pt x="1687" y="1129" on="0"/>
        <pt x="1920" y="1372" on="0"/>
        <pt x="2060" y="1522" on="1"/>
        <pt x="2103" y="1491" on="1"/>
        <pt x="1818" y="1038" on="0"/>
        <pt x="1618" y="664" on="1"/>
        <pt x="1699" y="507" on="1"/>
        <pt x="1919" y="77" on="0"/>
        <pt x="2103" y="-215" on="1"/>
        <pt x="2060" y="-246" on="1"/>
        <pt x="1898" y="-72" on="0"/>
        <pt x="1588" y="277" on="1"/>
        <pt x="1366" y="527" on="0"/>
        <pt x="1266" y="625" on="1"/>
        <pt x="1012" y="588" on="0"/>
        <pt x="323" y="454" on="0"/>
        <pt x="213" y="422" on="1"/>
        <pt x="222" y="539" on="0"/>
        <pt x="222" y="633" on="1"/>
        <pt x="222" y="747" on="0"/>
      </contour>
    </TTGlyph>
    <TTGlyph name="glyph00022" xMin="205" yMin="-780" xMax="1942" yMax="1395">
      <contour>
        <pt x="205" y="952" on="1"/>
        <pt x="232" y="1072" on="0"/>
        <pt x="232" y="1176" on="1"/>
        <pt x="232" y="1286" on="0"/>
        <pt x="205" y="1395" on="1"/>
        <pt x="451" y="1327" on="0"/>
        <pt x="837" y="1264" on="0"/>
        <pt x="1410" y="1211" on="0"/>
        <pt x="1942" y="1176" on="1"/>
        <pt x="1942" y="1122" on="1"/>
        <pt x="1224" y="1102" on="0"/>
        <pt x="477" y="1028" on="0"/>
      </contour>
      <contour>
        <pt x="205" y="418" on="1"/>
        <pt x="232" y="538" on="0"/>
        <pt x="232" y="642" on="1"/>
        <pt x="232" y="752" on="0"/>
        <pt x="205" y="860" on="1"/>
        <pt x="455" y="791" on="0"/>
        <pt x="890" y="723" on="0"/>
        <pt x="1491" y="670" on="0"/>
        <pt x="1942" y="641" on="1"/>
        <pt x="1942" y="588" on="1"/>
        <pt x="1498" y="576" on="0"/>
        <pt x="861" y="536" on="0"/>
        <pt x="415" y="475" on="0"/>
      </contour>
      <contour>
        <pt x="205" y="-117" on="1"/>
        <pt x="232" y="3" on="0"/>
        <pt x="232" y="107" on="1"/>
        <pt x="232" y="217" on="0"/>
        <pt x="205" y="326" on="1"/>
        <pt x="457" y="256" on="0"/>
        <pt x="858" y="192" on="0"/>
        <pt x="1409" y="141" on="0"/>
        <pt x="1942" y="106" on="1"/>
        <pt x="1942" y="53" on="1"/>
        <pt x="1498" y="41" on="0"/>
        <pt x="861" y="1" on="0"/>
        <pt x="415" y="-60" on="0"/>
      </contour>
      <contour>
        <pt x="791" y="-150" on="1"/>
        <pt x="742" y="-267" on="1"/>
        <pt x="644" y="-499" on="0"/>
        <pt x="596" y="-780" on="1"/>
        <pt x="543" y="-780" on="1"/>
        <pt x="514" y="-613" on="0"/>
        <pt x="430" y="-323" on="0"/>
        <pt x="348" y="-150" on="1"/>
        <pt x="486" y="-170" on="0"/>
        <pt x="597" y="-170" on="1"/>
        <pt x="692" y="-170" on="0"/>
      </contour>
    </TTGlyph>
    <TTGlyph name="glyph00023" xMin="205" yMin="-246" xMax="1083" yMax="1522">
      <contour>
        <pt x="205" y="664" on="1"/>
        <pt x="350" y="810" on="1"/>
        <pt x="724" y="1181" on="0"/>
        <pt x="1040" y="1522" on="1"/>
        <pt x="1083" y="1491" on="1"/>
        <pt x="798" y="1038" on="0"/>
        <pt x="598" y="664" on="1"/>
        <pt x="679" y="507" on="1"/>
        <pt x="899" y="77" on="0"/>
        <pt x="1083" y="-215" on="1"/>
        <pt x="1040" y="-246" on="1"/>
        <pt x="897" y="-92" on="0"/>
        <pt x="538" y="312" on="1"/>
        <pt x="313" y="564" on="0"/>
      </contour>
    </TTGlyph>
    <TTGlyph name="glyph00024" xMin="205" yMin="-229" xMax="1090" yMax="1507">
      <contour>
        <pt x="649" y="1507" on="1"/>
        <pt x="775" y="1476" on="0"/>
        <pt x="870" y="1476" on="1"/>
        <pt x="962" y="1476" on="0"/>
        <pt x="1090" y="1507" on="1"/>
        <pt x="1029" y="1348" on="0"/>
        <pt x="970" y="1150" on="0"/>
        <pt x="917" y="892" on="0"/>
        <pt x="893" y="743" on="1"/>
        <pt x="853" y="743" on="1"/>
        <pt x="748" y="436" on="0"/>
        <pt x="670" y="-229" on="1"/>
        <pt x="623" y="-229" on="1"/>
        <pt x="606" y="27" on="0"/>
        <pt x="519" y="511" on="0"/>
        <pt x="439" y="743" on="1"/>
        <pt x="401" y="743" on="1"/>
        <pt x="361" y="990" on="0"/>
        <pt x="288" y="1290" on="0"/>
        <pt x="237" y="1421" on="1"/>
        <pt x="205" y="1507" on="1"/>
        <pt x="331" y="1476" on="0"/>
        <pt x="425" y="1476" on="1"/>
        <pt x="517" y="1476" on="0"/>
        <pt x="645" y="1507" on="1"/>
        <pt x="614" y="1424" on="1"/>
        <pt x="562" y="1290" on="0"/>
        <pt x="492" y="1008" on="0"/>
        <pt x="454" y="773" on="1"/>
        <pt x="560" y="749" on="0"/>
        <pt x="647" y="749" on="1"/>
        <pt x="731" y="749" on="0"/>
        <pt x="841" y="774" on="1"/>
        <pt x="807" y="982" on="0"/>
        <pt x="733" y="1287" on="0"/>
        <pt x="681" y="1423" on="1"/>
      </contour>
    </TTGlyph>
    <TTGlyph name="glyph00025" xMin="205" yMin="-246" xMax="2619" yMax="1522">
      <contour>
        <pt x="1741" y="664" on="1"/>
        <pt x="1886" y="810" on="1"/>
        <pt x="2260" y="1181" on="0"/>
        <pt x="2576" y="1522" on="1"/>
        <pt x="2619" y="1491" on="1"/>
        <pt x="2334" y="1038" on="0"/>
        <pt x="2134" y="664" on="1"/>
        <pt x="2215" y="507" on="1"/>
        <pt x="2435" y="77" on="0"/>
        <pt x="2619" y="-215" on="1"/>
        <pt x="2576" y="-246" on="1"/>
        <pt x="2433" y="-92" on="0"/>
        <pt x="2074" y="312" on="1"/>
        <pt x="1849" y="564" on="0"/>
      </contour>
      <contour>
        <pt x="205" y="727" on="1"/>
        <pt x="232" y="847" on="0"/>
        <pt x="232" y="951" on="1"/>
        <pt x="232" y="1061" on="0"/>
        <pt x="205" y="1169" on="1"/>
        <pt x="455" y="1100" on="0"/>
        <pt x="890" y="1032" on="0"/>
        <pt x="1491" y="979" on="0"/>
        <pt x="1942" y="950" on="1"/>
        <pt x="1942" y="897" on="1"/>
        <pt x="1498" y="885" on="0"/>
        <pt x="861" y="845" on="0"/>
        <pt x="415" y="784" on="0"/>
      </contour>
      <contour>
        <pt x="205" y="207" on="1"/>
        <pt x="232" y="327" on="0"/>
        <pt x="232" y="431" on="1"/>
        <pt x="232" y="541" on="0"/>
        <pt x="205" y="649" on="1"/>
        <pt x="455" y="580" on="0"/>
        <pt x="890" y="512" on="0"/>
        <pt x="1491" y="459" on="0"/>
        <pt x="1942" y="430" on="1"/>
        <pt x="1942" y="377" on="1"/>
        <pt x="1498" y="365" on="0"/>
        <pt x="861" y="325" on="0"/>
        <pt x="415" y="264" on="0"/>
      </contour>
    </TTGlyph>
    <TTGlyph name="glyph00026" xMin="205" yMin="-229" xMax="1110" yMax="1507">
      <contour>
        <pt x="205" y="657" on="1"/>
        <pt x="645" y="984" on="1"/>
        <pt x="626" y="1116" on="0"/>
        <pt x="577" y="1343" on="0"/>
        <pt x="532" y="1507" on="1"/>
        <pt x="634" y="1482" on="0"/>
        <pt x="744" y="1481" on="1"/>
        <pt x="858" y="1481" on="0"/>
        <pt x="975" y="1507" on="1"/>
        <pt x="932" y="1354" on="0"/>
        <pt x="904" y="1183" on="1"/>
        <pt x="1081" y="1321" on="1"/>
        <pt x="1110" y="1280" on="1"/>
        <pt x="879" y="1010" on="1"/>
        <pt x="844" y="726" on="0"/>
        <pt x="826" y="345" on="1"/>
        <pt x="966" y="161" on="0"/>
        <pt x="1110" y="-4" on="1"/>
        <pt x="1081" y="-45" on="1"/>
        <pt x="949" y="57" on="0"/>
        <pt x="818" y="165" on="1"/>
        <pt x="805" y="-229" on="1"/>
        <pt x="752" y="-229" on="1"/>
        <pt x="718" y="247" on="1"/>
        <pt x="550" y="385" on="0"/>
        <pt x="296" y="596" on="0"/>
      </contour>
      <contour>
        <pt x="696" y="520" on="1"/>
        <pt x="689" y="611" on="0"/>
        <pt x="673" y="756" on="1"/>
        <pt x="598" y="657" on="1"/>
      </contour>
    </TTGlyph>
    <TTGlyph name="glyph00027" xMin="205" yMin="-246" xMax="1663" yMax="1522">
      <contour>
        <pt x="1241" y="1389" on="1"/>
        <pt x="1354" y="1322" on="0"/>
        <pt x="1543" y="1268" on="0"/>
        <pt x="1663" y="1266" on="1"/>
        <pt x="1603" y="1184" on="0"/>
        <pt x="1317" y="583" on="0"/>
        <pt x="1017" y="-108" on="1"/>
        <pt x="1083" y="-215" on="1"/>
        <pt x="1040" y="-246" on="1"/>
        <pt x="897" y="-92" on="0"/>
        <pt x="538" y="312" on="1"/>
        <pt x="313" y="564" on="0"/>
        <pt x="205" y="664" on="1"/>
        <pt x="350" y="810" on="1"/>
        <pt x="724" y="1181" on="0"/>
        <pt x="1040" y="1522" on="1"/>
        <pt x="1083" y="1491" on="1"/>
        <pt x="798" y="1038" on="0"/>
        <pt x="598" y="664" on="1"/>
        <pt x="665" y="536" on="1"/>
        <pt x="828" y="210" on="0"/>
        <pt x="976" y="-39" on="1"/>
        <pt x="1242" y="1134" on="0"/>
        <pt x="1242" y="1367" on="1"/>
      </contour>
    </TTGlyph>
    <TTGlyph name="glyph00028" xMin="205" yMin="213" xMax="1942" yMax="1507">
      <contour>
        <pt x="768" y="1507" on="1"/>
        <pt x="723" y="1386" on="0"/>
        <pt x="639" y="892" on="0"/>
        <pt x="611" y="562" on="1"/>
        <pt x="785" y="531" on="0"/>
        <pt x="1069" y="503" on="1"/>
        <pt x="977" y="1231" on="0"/>
        <pt x="860" y="1493" on="1"/>
        <pt x="977" y="1478" on="0"/>
        <pt x="1072" y="1478" on="1"/>
        <pt x="1184" y="1479" on="0"/>
        <pt x="1300" y="1507" on="1"/>
        <pt x="1251" y="1375" on="0"/>
        <pt x="1164" y="827" on="0"/>
        <pt x="1138" y="496" on="1"/>
        <pt x="1607" y="459" on="1"/>
        <pt x="1510" y="1231" on="0"/>
        <pt x="1393" y="1493" on="1"/>
        <pt x="1510" y="1478" on="0"/>
        <pt x="1604" y="1478" on="1"/>
        <pt x="1715" y="1479" on="0"/>
        <pt x="1833" y="1507" on="1"/>
        <pt x="1783" y="1375" on="0"/>
        <pt x="1690" y="787" on="0"/>
        <pt x="1667" y="454" on="1"/>
        <pt x="1942" y="436" on="1"/>
        <pt x="1942" y="383" on="1"/>
        <pt x="1498" y="371" on="0"/>
        <pt x="861" y="331" on="0"/>
        <pt x="415" y="270" on="0"/>
        <pt x="205" y="213" on="1"/>
        <pt x="232" y="333" on="0"/>
        <pt x="232" y="437" on="1"/>
        <pt x="232" y="547" on="0"/>
        <pt x="205" y="655" on="1"/>
        <pt x="380" y="607" on="0"/>
        <pt x="527" y="577" on="1"/>
        <pt x="436" y="1252" on="0"/>
        <pt x="328" y="1493" on="1"/>
        <pt x="445" y="1478" on="0"/>
        <pt x="539" y="1478" on="1"/>
        <pt x="650" y="1479" on="0"/>
      </contour>
    </TTGlyph>
    <TTGlyph name="glyph00029" xMin="205" yMin="-221" xMax="1559" yMax="1516">
      <contour>
        <pt x="205" y="1397" on="1"/>
        <pt x="573" y="1327" on="0"/>
        <pt x="1179" y="1236" on="1"/>
        <pt x="1153" y="1379" on="0"/>
        <pt x="1116" y="1516" on="1"/>
        <pt x="1236" y="1489" on="0"/>
        <pt x="1340" y="1489" on="1"/>
        <pt x="1450" y="1489" on="0"/>
        <pt x="1559" y="1516" on="1"/>
        <pt x="1496" y="1290" on="0"/>
        <pt x="1431" y="911" on="0"/>
        <pt x="1378" y="372" on="0"/>
        <pt x="1337" y="-221" on="1"/>
        <pt x="1284" y="-221" on="1"/>
        <pt x="1257" y="717" on="0"/>
        <pt x="1198" y="1117" on="1"/>
        <pt x="980" y="1089" on="0"/>
        <pt x="370" y="994" on="0"/>
        <pt x="205" y="956" on="1"/>
        <pt x="227" y="1092" on="0"/>
        <pt x="227" y="1202" on="1"/>
        <pt x="227" y="1297" on="0"/>
      </contour>
    </TTGlyph>
    <TTGlyph name="glyph00030" xMin="205" yMin="-139" xMax="1942" yMax="952">
      <contour>
        <pt x="838" y="-139" on="1"/>
        <pt x="783" y="-26" on="0"/>
        <pt x="660" y="124" on="0"/>
        <pt x="555" y="199" on="1"/>
        <pt x="705" y="253" on="0"/>
        <pt x="1209" y="558" on="1"/>
        <pt x="884" y="539" on="0"/>
        <pt x="411" y="475" on="0"/>
        <pt x="205" y="418" on="1"/>
        <pt x="232" y="538" on="0"/>
        <pt x="232" y="642" on="1"/>
        <pt x="232" y="752" on="0"/>
        <pt x="205" y="860" on="1"/>
        <pt x="469" y="785" on="0"/>
        <pt x="979" y="712" on="0"/>
        <pt x="1407" y="679" on="1"/>
        <pt x="1839" y="952" on="1"/>
        <pt x="1868" y="913" on="1"/>
        <pt x="1604" y="664" on="1"/>
        <pt x="1942" y="641" on="1"/>
        <pt x="1942" y="588" on="1"/>
        <pt x="1508" y="572" on="1"/>
        <pt x="928" y="15" on="0"/>
      </contour>
    </TTGlyph>
    <TTGlyph name="glyph00031" xMin="205" yMin="377" xMax="2482" yMax="1337">
      <contour>
        <pt x="1645" y="1075" on="1"/>
        <pt x="1773" y="1023" on="0"/>
        <pt x="2270" y="906" on="0"/>
        <pt x="2480" y="877" on="1"/>
        <pt x="2482" y="829" on="1"/>
        <pt x="2219" y="792" on="0"/>
        <pt x="1746" y="682" on="0"/>
        <pt x="1645" y="635" on="1"/>
        <pt x="1657" y="715" on="0"/>
        <pt x="1663" y="795" on="1"/>
        <pt x="1462" y="760" on="0"/>
        <pt x="1116" y="672" on="0"/>
        <pt x="1036" y="635" on="1"/>
        <pt x="1058" y="769" on="0"/>
        <pt x="1058" y="881" on="1"/>
        <pt x="1058" y="976" on="0"/>
        <pt x="1036" y="1075" on="1"/>
        <pt x="1126" y="1039" on="0"/>
        <pt x="1468" y="948" on="0"/>
        <pt x="1665" y="911" on="1"/>
        <pt x="1661" y="990" on="0"/>
      </contour>
      <contour>
        <pt x="205" y="817" on="1"/>
        <pt x="343" y="763" on="0"/>
        <pt x="852" y="644" on="0"/>
        <pt x="1042" y="618" on="1"/>
        <pt x="1042" y="571" on="1"/>
        <pt x="779" y="534" on="0"/>
        <pt x="306" y="424" on="0"/>
        <pt x="205" y="377" on="1"/>
        <pt x="227" y="511" on="0"/>
        <pt x="227" y="623" on="1"/>
        <pt x="227" y="718" on="0"/>
      </contour>
      <contour>
        <pt x="205" y="1337" on="1"/>
        <pt x="333" y="1285" on="0"/>
        <pt x="830" y="1168" on="0"/>
        <pt x="1040" y="1139" on="1"/>
        <pt x="1040" y="1092" on="1"/>
        <pt x="808" y="1059" on="0"/>
        <pt x="316" y="949" on="0"/>
        <pt x="205" y="897" on="1"/>
        <pt x="227" y="1031" on="0"/>
        <pt x="227" y="1143" on="1"/>
        <pt x="227" y="1238" on="0"/>
      </contour>
    </TTGlyph>
    <TTGlyph name="glyph00032" xMin="205" yMin="377" xMax="2611" yMax="1337">
      <contour>
        <pt x="942" y="1337" on="1"/>
        <pt x="1083" y="1281" on="0"/>
        <pt x="1583" y="1166" on="0"/>
        <pt x="1778" y="1139" on="1"/>
        <pt x="1778" y="1092" on="1"/>
        <pt x="1544" y="1059" on="0"/>
        <pt x="1051" y="948" on="0"/>
        <pt x="942" y="897" on="1"/>
        <pt x="958" y="987" on="0"/>
        <pt x="962" y="1080" on="1"/>
        <pt x="709" y="1039" on="0"/>
        <pt x="298" y="941" on="0"/>
        <pt x="205" y="897" on="1"/>
        <pt x="227" y="1031" on="0"/>
        <pt x="227" y="1143" on="1"/>
        <pt x="227" y="1238" on="0"/>
        <pt x="205" y="1337" on="1"/>
        <pt x="312" y="1294" on="0"/>
        <pt x="744" y="1185" on="0"/>
        <pt x="963" y="1150" on="1"/>
        <pt x="962" y="1241" on="0"/>
      </contour>
      <contour>
        <pt x="942" y="817" on="1"/>
        <pt x="1081" y="762" on="0"/>
        <pt x="1586" y="645" on="0"/>
        <pt x="1778" y="618" on="1"/>
        <pt x="1778" y="571" on="1"/>
        <pt x="1522" y="535" on="0"/>
        <pt x="1046" y="425" on="0"/>
        <pt x="942" y="377" on="1"/>
        <pt x="958" y="467" on="0"/>
        <pt x="962" y="560" on="1"/>
        <pt x="711" y="520" on="0"/>
        <pt x="300" y="421" on="0"/>
        <pt x="205" y="377" on="1"/>
        <pt x="227" y="511" on="0"/>
        <pt x="227" y="623" on="1"/>
        <pt x="227" y="718" on="0"/>
        <pt x="205" y="817" on="1"/>
        <pt x="316" y="772" on="0"/>
        <pt x="765" y="660" on="0"/>
        <pt x="963" y="629" on="1"/>
        <pt x="962" y="721" on="0"/>
      </contour>
      <contour>
        <pt x="1774" y="1075" on="1"/>
        <pt x="1902" y="1023" on="0"/>
        <pt x="2399" y="906" on="0"/>
        <pt x="2609" y="877" on="1"/>
        <pt x="2611" y="829" on="1"/>
        <pt x="2348" y="792" on="0"/>
        <pt x="1875" y="682" on="0"/>
        <pt x="1774" y="635" on="1"/>
        <pt x="1795" y="766" on="0"/>
        <pt x="1795" y="878" on="1"/>
        <pt x="1795" y="975" on="0"/>
      </contour>
    </TTGlyph>
    <TTGlyph name="glyph00033" xMin="205" yMin="377" xMax="2482" yMax="1337">
      <contour>
        <pt x="1036" y="1075" on="1"/>
        <pt x="1195" y="1044" on="0"/>
        <pt x="2235" y="904" on="0"/>
        <pt x="2482" y="877" on="1"/>
        <pt x="2482" y="829" on="1"/>
        <pt x="1636" y="735" on="0"/>
        <pt x="1121" y="659" on="0"/>
        <pt x="1036" y="635" on="1"/>
        <pt x="1058" y="769" on="0"/>
        <pt x="1058" y="881" on="1"/>
        <pt x="1058" y="976" on="0"/>
      </contour>
      <contour>
        <pt x="205" y="817" on="1"/>
        <pt x="343" y="763" on="0"/>
        <pt x="852" y="644" on="0"/>
        <pt x="1042" y="618" on="1"/>
        <pt x="1042" y="571" on="1"/>
        <pt x="779" y="534" on="0"/>
        <pt x="306" y="424" on="0"/>
        <pt x="205" y="377" on="1"/>
        <pt x="227" y="511" on="0"/>
        <pt x="227" y="623" on="1"/>
        <pt x="227" y="718" on="0"/>
      </contour>
      <contour>
        <pt x="205" y="1337" on="1"/>
        <pt x="333" y="1285" on="0"/>
        <pt x="830" y="1168" on="0"/>
        <pt x="1040" y="1139" on="1"/>
        <pt x="1040" y="1092" on="1"/>
        <pt x="808" y="1059" on="0"/>
        <pt x="316" y="949" on="0"/>
        <pt x="205" y="897" on="1"/>
        <pt x="227" y="1031" on="0"/>
        <pt x="227" y="1143" on="1"/>
        <pt x="227" y="1238" on="0"/>
      </contour>
    </TTGlyph>
    <TTGlyph name="glyph00034" xMin="205" yMin="199" xMax="1804" yMax="676">
      <contour>
        <pt x="725" y="676" on="1"/>
        <pt x="871" y="622" on="0"/>
        <pt x="1442" y="530" on="0"/>
        <pt x="1804" y="506" on="1"/>
        <pt x="1804" y="459" on="1"/>
        <pt x="1379" y="407" on="0"/>
        <pt x="884" y="300" on="0"/>
        <pt x="739" y="236" on="1"/>
        <pt x="754" y="343" on="0"/>
        <pt x="754" y="433" on="1"/>
        <pt x="564" y="387" on="0"/>
        <pt x="305" y="275" on="0"/>
        <pt x="211" y="199" on="1"/>
        <pt x="226" y="339" on="0"/>
        <pt x="227" y="428" on="1"/>
        <pt x="227" y="558" on="0"/>
        <pt x="205" y="676" on="1"/>
        <pt x="291" y="610" on="0"/>
        <pt x="586" y="507" on="0"/>
        <pt x="753" y="483" on="1"/>
        <pt x="749" y="581" on="0"/>
      </contour>
    </TTGlyph>
</ttFont>
